<svg width="488" height="846" viewBox="0 0 488 846" fill="none" xmlns="http://www.w3.org/2000/svg">
<g filter="url(#filter0_d_1150_0)">
<path d="M406 168.821C406 168.368 406.368 168 406.821 168C408.181 168 409.284 169.103 409.284 170.463V238.608C409.284 239.968 408.181 241.071 406.821 241.071C406.368 241.071 406 240.703 406 240.25V168.821Z" fill="white"/>
</g>
<path d="M78 118C78 116.343 79.3431 115 81 115H81.1051C81.6574 115 82.1051 115.448 82.1051 116V139.452C82.1051 140.004 81.6574 140.452 81.1051 140.452H81C79.3431 140.452 78 139.108 78 137.452V118Z" fill="white"/>
<path d="M78 161.463C78 160.103 79.1027 159 80.4631 159H81.2841C81.7375 159 82.1051 159.368 82.1051 159.821V202.514C82.1051 202.967 81.7375 203.335 81.2841 203.335H80.4631C79.1027 203.335 78 202.232 78 200.872V161.463Z" fill="white"/>
<path d="M78 221.463C78 220.103 79.1027 219 80.4631 219H81.2841C81.7375 219 82.1051 219.368 82.1051 219.821V262.514C82.1051 262.967 81.7375 263.335 81.2841 263.335H80.4631C79.1027 263.335 78 262.232 78 260.872V221.463Z" fill="white"/>
<g filter="url(#filter1_dddd_1150_0)">
<rect x="80" y="29" width="328" height="686" rx="48" fill="white"/>
</g>
<rect x="225" y="47" width="36" height="4" rx="2" fill="#C4C4C4"/>
<circle cx="278" cy="49" r="4" fill="#C4C4C4"/>
<path fill-rule="evenodd" clip-rule="evenodd" d="M158 47C158 46.6643 158.01 46.3309 158.029 46H158C158 42.134 154.866 39 151 39H128C107.013 39 90 56.0132 90 77V668C90 688.987 107.013 706 128 706H360C380.987 706 398 688.987 398 668V77C398 56.0132 380.987 39 360 39H338C334.134 39 331 42.134 331 46H330.971C330.99 46.3309 331 46.6643 331 47C331 56.3888 323.389 64 314 64H175C165.611 64 158 56.3888 158 47Z" fill="url(#paint0_linear_1150_0)"/>
<path fill-rule="evenodd" clip-rule="evenodd" d="M220.676 350.141C220.676 350.151 220.676 350.156 220.677 350.156C220.678 350.156 220.679 350.15 220.683 350.139C220.696 350.091 220.74 349.941 220.878 349.702C221.058 349.39 221.352 349.013 221.786 348.658C222.63 347.965 224.058 347.312 226.329 347.478C235.601 348.159 240.669 354.519 240.669 359.121V388.322C240.669 388.623 240.615 388.735 240.6 388.761C240.57 388.779 240.454 388.832 240.152 388.832H234.516C234.214 388.832 234.098 388.779 234.068 388.761C234.053 388.735 233.999 388.623 233.999 388.322V361.367C233.999 359.45 233.063 357.574 231.719 356.199C230.371 354.819 228.482 353.81 226.419 353.81H220.676V350.141ZM240.604 388.759C240.607 388.755 240.609 388.754 240.609 388.754C240.609 388.755 240.607 388.756 240.604 388.759ZM234.059 388.754C234.059 388.754 234.061 388.755 234.064 388.759C234.061 388.756 234.059 388.755 234.059 388.754ZM226.419 356.263H220.676V388.322C220.676 389.091 220.538 389.955 219.885 390.576C219.246 391.183 218.397 391.284 217.708 391.284H211.968C211.327 391.284 210.538 391.162 209.907 390.612C209.243 390.032 209 389.2 209 388.322V361.061C209 359.541 209.851 357.758 211.047 356.397C212.258 355.018 214.053 353.81 216.17 353.81H218.224V350.136C218.224 349.596 218.455 348.995 218.755 348.475C219.079 347.914 219.564 347.309 220.231 346.762C221.586 345.65 223.643 344.822 226.509 345.033C236.71 345.782 243.121 352.91 243.121 359.121V388.322C243.121 389.046 242.958 389.847 242.369 390.46C241.771 391.083 240.955 391.284 240.152 391.284H234.516C233.713 391.284 232.897 391.083 232.299 390.46C231.71 389.847 231.547 389.045 231.547 388.322V361.367C231.547 360.229 230.968 358.939 229.965 357.913C228.967 356.892 227.678 356.263 226.419 356.263ZM216.17 356.263H218.224V388.322C218.224 388.569 218.2 388.713 218.18 388.789C218.099 388.81 217.953 388.832 217.708 388.832H211.968C211.657 388.832 211.544 388.777 211.521 388.764C211.5 388.729 211.452 388.611 211.452 388.322V361.061C211.452 360.334 211.933 359.105 212.889 358.015C213.83 356.944 215.007 356.263 216.17 356.263ZM211.531 388.777C211.531 388.778 211.528 388.775 211.523 388.767C211.529 388.773 211.531 388.777 211.531 388.777ZM270.373 394.857C270.373 394.847 270.373 394.842 270.372 394.842C270.371 394.842 270.37 394.848 270.366 394.859C270.352 394.907 270.309 395.057 270.171 395.296C269.991 395.608 269.697 395.985 269.263 396.34C268.419 397.033 266.991 397.686 264.72 397.519C255.448 396.839 250.38 390.479 250.38 385.877V356.676C250.38 356.374 250.433 356.263 250.449 356.237C250.479 356.219 250.595 356.166 250.896 356.166H256.533C256.835 356.166 256.951 356.219 256.981 356.237C256.996 356.263 257.049 356.374 257.049 356.676V383.631C257.049 385.548 257.986 387.423 259.33 388.799C260.678 390.179 262.567 391.187 264.63 391.187H270.373V394.857ZM250.445 356.239C250.442 356.242 250.44 356.244 250.44 356.243C250.44 356.243 250.442 356.242 250.445 356.239ZM256.99 356.243C256.99 356.244 256.988 356.242 256.984 356.239C256.988 356.242 256.99 356.243 256.99 356.243ZM264.63 388.735H270.373V356.676C270.373 355.907 270.511 355.043 271.164 354.422C271.803 353.814 272.652 353.714 273.341 353.714H279.081C279.722 353.714 280.511 353.836 281.142 354.386C281.806 354.966 282.049 355.798 282.049 356.676V383.937C282.049 385.457 281.197 387.24 280.002 388.601C278.791 389.98 276.996 391.187 274.879 391.187H272.825V394.862C272.825 395.401 272.594 396.003 272.294 396.523C271.97 397.083 271.485 397.689 270.818 398.236C269.463 399.348 267.406 400.175 264.54 399.965C254.339 399.216 247.928 392.088 247.928 385.877V356.676C247.928 355.952 248.091 355.151 248.68 354.538C249.278 353.915 250.094 353.714 250.896 353.714H256.533C257.336 353.714 258.152 353.915 258.75 354.538C259.339 355.151 259.502 355.952 259.502 356.676V383.631C259.502 384.769 260.081 386.059 261.084 387.085C262.082 388.106 263.371 388.735 264.63 388.735ZM274.879 388.735H272.825V356.676C272.825 356.429 272.849 356.285 272.869 356.209C272.95 356.188 273.096 356.166 273.341 356.166H279.081C279.392 356.166 279.505 356.221 279.528 356.233C279.549 356.269 279.597 356.387 279.597 356.676V383.937C279.597 384.663 279.116 385.893 278.16 386.983C277.219 388.054 276.042 388.735 274.879 388.735ZM279.518 356.221C279.518 356.22 279.521 356.223 279.526 356.23C279.52 356.225 279.518 356.221 279.518 356.221Z" fill="#EDEAEF"/>
<defs>
<filter id="filter0_d_1150_0" x="399" y="163" width="13.2842" height="83.0708" filterUnits="userSpaceOnUse" color-interpolation-filters="sRGB">
<feFlood flood-opacity="0" result="BackgroundImageFix"/>
<feColorMatrix in="SourceAlpha" type="matrix" values="0 0 0 0 0 0 0 0 0 0 0 0 0 0 0 0 0 0 127 0" result="hardAlpha"/>
<feOffset dx="-2"/>
<feGaussianBlur stdDeviation="2.5"/>
<feColorMatrix type="matrix" values="0 0 0 0 0 0 0 0 0 0 0 0 0 0 0 0 0 0 0.12 0"/>
<feBlend mode="normal" in2="BackgroundImageFix" result="effect1_dropShadow_1150_0"/>
<feBlend mode="normal" in="SourceGraphic" in2="effect1_dropShadow_1150_0" result="shape"/>
</filter>
<filter id="filter1_dddd_1150_0" x="0" y="0" width="488" height="846" filterUnits="userSpaceOnUse" color-interpolation-filters="sRGB">
<feFlood flood-opacity="0" result="BackgroundImageFix"/>
<feColorMatrix in="SourceAlpha" type="matrix" values="0 0 0 0 0 0 0 0 0 0 0 0 0 0 0 0 0 0 127 0" result="hardAlpha"/>
<feOffset dy="2.30969"/>
<feGaussianBlur stdDeviation="1.81152"/>
<feColorMatrix type="matrix" values="0 0 0 0 0.662745 0 0 0 0 0.313726 0 0 0 0 0.768627 0 0 0 0.0278729 0"/>
<feBlend mode="normal" in2="BackgroundImageFix" result="effect1_dropShadow_1150_0"/>
<feColorMatrix in="SourceAlpha" type="matrix" values="0 0 0 0 0 0 0 0 0 0 0 0 0 0 0 0 0 0 127 0" result="hardAlpha"/>
<feOffset dy="6.38599"/>
<feGaussianBlur stdDeviation="5.00862"/>
<feColorMatrix type="matrix" values="0 0 0 0 0.662745 0 0 0 0 0.313726 0 0 0 0 0.768627 0 0 0 0.04 0"/>
<feBlend mode="normal" in2="effect1_dropShadow_1150_0" result="effect2_dropShadow_1150_0"/>
<feColorMatrix in="SourceAlpha" type="matrix" values="0 0 0 0 0 0 0 0 0 0 0 0 0 0 0 0 0 0 127 0" result="hardAlpha"/>
<feOffset dy="15.375"/>
<feGaussianBlur stdDeviation="12.0588"/>
<feColorMatrix type="matrix" values="0 0 0 0 0.662745 0 0 0 0 0.313726 0 0 0 0 0.768627 0 0 0 0.0521271 0"/>
<feBlend mode="normal" in2="effect2_dropShadow_1150_0" result="effect3_dropShadow_1150_0"/>
<feColorMatrix in="SourceAlpha" type="matrix" values="0 0 0 0 0 0 0 0 0 0 0 0 0 0 0 0 0 0 127 0" result="hardAlpha"/>
<feOffset dy="51"/>
<feGaussianBlur stdDeviation="40"/>
<feColorMatrix type="matrix" values="0 0 0 0 0.662745 0 0 0 0 0.313726 0 0 0 0 0.768627 0 0 0 0.08 0"/>
<feBlend mode="normal" in2="effect3_dropShadow_1150_0" result="effect4_dropShadow_1150_0"/>
<feBlend mode="normal" in="SourceGraphic" in2="effect4_dropShadow_1150_0" result="shape"/>
</filter>
<linearGradient id="paint0_linear_1150_0" x1="350.26" y1="129.045" x2="-15.8109" y2="323.893" gradientUnits="userSpaceOnUse">
<stop stop-color="#A950C4"/>
<stop offset="1" stop-color="#82269E"/>
</linearGradient>
</defs>
</svg>
