<svg xmlns="http://www.w3.org/2000/svg" width="32" height="37" fill="none"><path fill="url(#a)" d="M.019 20.114C-.312 14.537 3.774 8.845 9.783 8.845c1.384 0 2.011.313 3.518.77.807.244 2.175.923 2.965.923s1.74-.5 3.02-.957c1.815-.648 2.889-.717 3.938-.736 3.518 0 6.101 1.431 7.748 3.654-2.718 1.72-4.15 3.807-4.23 7.192 0 3.076 2.016 6.076 5.258 7.422-.79 3.23-5.06 9.884-8.578 9.884-1.209-.067-1.951-.25-3.36-.77-1.051-.447-2.452-.768-3.36-.768-.95-.039-2.013.26-3.341.769-1.127.43-1.798.676-3.34.769-2.926.176-9.416-7-10.002-16.883Z"/><path fill="url(#b)" d="M18.164 2.846c-1.632 1.71-2.254 3.961-2.135 6 2.688-.193 4.546-1.27 6.246-3.27 1.7-2 1.713-3.453 1.7-5.576-1.979.313-4.27 1.23-5.811 2.846Z"/><defs><linearGradient id="a" x1="27.04" x2="2.56" y1="4.995" y2="29.399" gradientUnits="userSpaceOnUse"><stop stop-color="#A950C4"/><stop offset="1" stop-color="#82269E"/></linearGradient><linearGradient id="b" x1="27.04" x2="2.56" y1="4.995" y2="29.399" gradientUnits="userSpaceOnUse"><stop stop-color="#A950C4"/><stop offset="1" stop-color="#82269E"/></linearGradient></defs></svg>