<svg xmlns="http://www.w3.org/2000/svg" width="48" height="48" fill="none"><g stroke="#868587" stroke-linecap="round" stroke-linejoin="round" stroke-width="2"><path d="M39.33 16.548a4.085 4.085 0 0 0-1.02-1.848 4.037 4.037 0 0 0-1.802-1.084C34.007 13 24 13 24 13s-10.007 0-12.508.674A4.038 4.038 0 0 0 9.69 14.76a4.085 4.085 0 0 0-1.02 1.848A42.85 42.85 0 0 0 8 24.363c-.015 2.62.208 5.236.67 7.815.19.674.55 1.287 1.044 1.78.495.493 1.107.85 1.778 1.035 2.501.674 12.508.674 12.508.674s10.007 0 12.508-.675a4.037 4.037 0 0 0 1.802-1.084 4.085 4.085 0 0 0 1.02-1.848c.454-2.54.678-5.116.67-7.697a42.855 42.855 0 0 0-.67-7.815v0Z"/><path d="m20.727 29.158 8.363-4.795-8.363-4.794v9.589Z"/></g></svg>