<svg xmlns="http://www.w3.org/2000/svg" width="72" height="72" fill="none"><g clip-path="url(#a)"><rect width="72" height="72" fill="#FEFBFF" rx="17.077"/><g stroke-linecap="round" stroke-linejoin="round" stroke-width="3"><path stroke="url(#b)" d="M22 41.5v-9a13.5 13.5 0 1 1 27 0v9"/><path stroke="url(#c)" d="M49 43a3 3 0 0 1-3 3h-1.5a3 3 0 0 1-3-3v-4.5a3 3 0 0 1 3-3H49V43Zm-27 0a3 3 0 0 0 3 3h1.5a3 3 0 0 0 3-3v-4.5a3 3 0 0 0-3-3H22V43Z"/><path stroke="url(#d)" d="M49 40.5c.587 10.437-3 12-13 12"/></g></g><defs><linearGradient id="b" x1="44.815" x2="30.679" y1="22.038" y2="41.591" gradientUnits="userSpaceOnUse"><stop stop-color="#A950C4"/><stop offset="1" stop-color="#82269E"/></linearGradient><linearGradient id="c" x1="44.815" x2="40.606" y1="36.917" y2="49.392" gradientUnits="userSpaceOnUse"><stop stop-color="#A950C4"/><stop offset="1" stop-color="#82269E"/></linearGradient><linearGradient id="d" x1="47.037" x2="39.297" y1="42.12" y2="51.83" gradientUnits="userSpaceOnUse"><stop stop-color="#A950C4"/><stop offset="1" stop-color="#82269E"/></linearGradient><clipPath id="a"><path fill="#fff" d="M0 0h72v72H0z"/></clipPath></defs></svg>