<svg xmlns="http://www.w3.org/2000/svg" width="72" height="72" fill="none"><g clip-path="url(#a)"><rect width="72" height="72" fill="#FEFBFF" rx="17.077"/><g stroke-linecap="round" stroke-linejoin="round" stroke-width="3"><path stroke="url(#b)" d="M36 41.364a4.364 4.364 0 1 0 0-8.727 4.364 4.364 0 0 0 0 8.727Z"/><path stroke="url(#c)" d="M46.764 41.364a2.4 2.4 0 0 0 .48 2.647l.087.087a2.909 2.909 0 0 1-.944 4.748 2.909 2.909 0 0 1-3.172-.631l-.088-.088a2.4 2.4 0 0 0-2.647-.48 2.4 2.4 0 0 0-1.454 2.197v.247a2.909 2.909 0 1 1-5.819 0v-.131a2.4 2.4 0 0 0-1.57-2.196 2.4 2.4 0 0 0-2.648.48l-.087.087a2.909 2.909 0 0 1-4.748-.944 2.909 2.909 0 0 1 .631-3.172l.088-.088a2.4 2.4 0 0 0 .48-2.647 2.4 2.4 0 0 0-2.197-1.454h-.247a2.909 2.909 0 1 1 0-5.819h.131a2.4 2.4 0 0 0 2.196-1.57 2.4 2.4 0 0 0-.48-2.648l-.087-.087a2.909 2.909 0 0 1 .944-4.748 2.909 2.909 0 0 1 3.172.631l.088.088a2.4 2.4 0 0 0 2.647.48h.116a2.4 2.4 0 0 0 1.455-2.197v-.247a2.909 2.909 0 1 1 5.818 0v.131a2.4 2.4 0 0 0 1.455 2.196 2.4 2.4 0 0 0 2.647-.48l.087-.087a2.909 2.909 0 0 1 4.748.944 2.909 2.909 0 0 1-.631 3.172l-.088.088a2.4 2.4 0 0 0-.48 2.647v.116a2.4 2.4 0 0 0 2.197 1.455h.247a2.909 2.909 0 1 1 0 5.818h-.131a2.4 2.4 0 0 0-2.196 1.455v0Z"/></g></g><defs><linearGradient id="b" x1="39.011" x2="33.294" y1="33.815" y2="40.404" gradientUnits="userSpaceOnUse"><stop stop-color="#A950C4"/><stop offset="1" stop-color="#82269E"/></linearGradient><linearGradient id="c" x1="47.04" x2="26.08" y1="25.32" y2="49.48" gradientUnits="userSpaceOnUse"><stop stop-color="#A950C4"/><stop offset="1" stop-color="#82269E"/></linearGradient><clipPath id="a"><path fill="#fff" d="M0 0h72v72H0z"/></clipPath></defs></svg>